<svg height="480pt" viewBox="0 0 480 480" width="480pt" xmlns="http://www.w3.org/2000/svg" xmlns:xlink="http://www.w3.org/1999/xlink"><linearGradient id="linear0" gradientUnits="userSpaceOnUse" x1="240" x2="240" y1="480" y2="0"><stop offset="0" stop-color="#12c2e9"/><stop offset=".056" stop-color="#19bfe9"/><stop offset=".137" stop-color="#2db6ea"/><stop offset=".235" stop-color="#4da7ea"/><stop offset=".344" stop-color="#7993eb"/><stop offset=".462" stop-color="#b279ed"/><stop offset=".497" stop-color="#c471ed"/><stop offset="1" stop-color="#f64f59"/></linearGradient><path d="m240 0c-132.546875 0-240 107.453125-240 240s107.453125 240 240 240 240-107.453125 240-240c-.148438-132.484375-107.515625-239.851562-240-240zm0 464c-123.710938 0-224-100.289062-224-224s100.289062-224 224-224 224 100.289062 224 224c-.140625 123.652344-100.347656 223.859375-224 224zm121.601562-255.839844-76.378906-15.28125-38.199218-68.800781c-1.53125-2.375-4.164063-3.808594-6.992188-3.808594-2.824219 0-5.460938 1.433594-6.992188 3.808594l-38.199218 68.800781-76.441406 15.28125c-2.890626.578125-5.226563 2.703125-6.082032 5.523438-.855468 2.824218-.085937 5.886718 1.996094 7.972656l52.96875 52.976562-15.121094 75.765626c-.632812 3.007812.511719 6.113281 2.945313 7.988281 2.433593 1.875 5.722656 2.191406 8.46875.8125l76.425781-38.253907 76.425781 38.253907c1.113281.539062 2.335938.8125 3.574219.800781 2.402344 0 4.679688-1.078125 6.199219-2.941406 1.519531-1.859375 2.121093-4.304688 1.640625-6.660156l-15.152344-75.796876 52.96875-52.976562c2.066406-2.085938 2.824219-5.132812 1.976562-7.941406-.84375-2.808594-3.160156-4.925782-6.03125-5.523438zm-63.203124 58.183594c-1.878907 1.886719-2.699219 4.585938-2.183594 7.199219l12.800781 64-65.441406-32.742188c-2.25-1.125-4.898438-1.125-7.148438 0l-65.371093 32.6875 12.800781-64c.515625-2.613281-.300781-5.3125-2.183594-7.199219l-45.433594-45.433593 65.363281-13.015625c2.296876-.457032 4.28125-1.902344 5.421876-3.953125l32.976562-59.414063 33.007812 59.414063c1.140626 2.050781 3.125 3.496093 5.425782 3.953125l65.34375 13.070312zm0 0" fill="url(#linear0)"/></svg>